<svg width="58" height="55" viewBox="0 0 58 55" fill="none" xmlns="http://www.w3.org/2000/svg">
<g clip-path="url(#clip0_245_2591)">
<path d="M32.1406 1.41699C35.719 1.41698 38.7546 1.2464 41.7598 2.3291C44.2271 3.21806 46.811 4.62655 48.4189 6.41406C50.0815 8.26236 51.8095 10.2129 53.1826 12.3135C54.5534 14.4104 55.5102 16.5688 55.707 18.8086C55.8539 20.4795 56.1064 22.174 56.2891 23.7256C56.4763 25.3166 56.604 26.8537 56.542 28.4141C56.4353 31.0993 56.3141 33.7605 55.626 36.0557L54.3545 40.0547C53.4135 41.8765 53.1816 42.3144 52.5234 43.248C51.9314 44.0879 51.1293 44.764 50.1348 45.4307C48.116 46.7839 45.8865 48.0357 43.6758 48.8496C39.3953 50.4254 35.0491 51.7326 30.5928 52.3672C23.893 53.3212 17.2245 53.6869 11.5811 50.5645C7.56047 48.3398 4.69891 45.1933 3.04199 41.0908C1.2195 36.5783 1.25306 31.6604 1.5752 26.5762C1.84979 22.2428 3.05656 17.4587 5.10742 13.6719C7.60555 9.05926 12.845 5.60643 18.1377 3.8877C22.7391 2.39352 27.3824 1.41699 32.1406 1.41699Z" stroke="white" stroke-width="2.81033" stroke-linecap="round"/>
<path d="M21.1023 25.6949C21.2652 25.7153 21.2075 26.2878 21.3099 26.4445C21.5429 26.801 21.9757 26.9106 22.3477 27.0672C23.2045 27.4279 23.9045 26.8432 23.9045 26.012C23.9045 25.3043 23.2319 24.4495 22.5091 24.4495C21.8638 24.4495 21.1023 24.5766 21.1023 25.3836" stroke="white" stroke-width="3.51291" stroke-linecap="round"/>
<path d="M36.5342 19.864C36.6971 19.8844 36.6393 20.4569 36.7417 20.6135C36.9748 20.97 37.4076 21.0796 37.7796 21.2362C38.6364 21.597 39.3363 21.0123 39.3363 20.1811C39.3363 19.4734 38.6638 18.6186 37.941 18.6186C37.2957 18.6186 36.5342 18.7457 36.5342 19.5526" stroke="white" stroke-width="3.51291" stroke-linecap="round"/>
<path d="M31.6162 36.0008C32.7031 36.6903 34.7027 37.9281 36.0325 37.1967C36.7896 36.7803 37.2182 36.4366 37.4592 35.6127C37.7365 34.6644 37.8473 33.7707 37.8473 32.7908C37.8473 32.6206 37.9086 32.3967 37.7529 32.3188" stroke="white" stroke-width="3.51291" stroke-linecap="round"/>
</g>
<defs>
<clipPath id="clip0_245_2591">
<rect width="57.9631" height="54.4501" fill="white"/>
</clipPath>
</defs>
</svg>
