<svg width="67" height="64" viewBox="0 0 67 64" fill="none" xmlns="http://www.w3.org/2000/svg">
<g clip-path="url(#clip0_245_2644)">
<g filter="url(#filter0_g_245_2644)">
<path d="M21.0731 49.1318C22.351 52.2853 21.585 55.5723 19.3631 56.4727C18.9781 56.6286 18.5746 56.7007 18.1639 56.7002C17.8354 59.0596 16.4862 60.8771 14.66 61.1152C13.4904 61.2676 12.3444 60.7429 11.4286 59.7695C10.206 60.8822 8.7303 61.3617 7.41197 60.9082C5.9017 60.3887 4.98187 58.777 4.86216 56.8076C4.42447 56.8422 3.98913 56.7925 3.57017 56.6484C1.30355 55.8684 0.363122 52.6284 1.46958 49.4111C2.2807 47.053 3.96691 45.3629 5.70201 44.9346C5.81148 41.6385 8.51603 39 11.8387 39C15.2308 39.0001 17.9803 41.7504 17.9803 45.1426C17.9803 45.2293 17.978 45.3155 17.9745 45.4014C19.2339 46.109 20.3819 47.4262 21.0731 49.1318Z" fill="#F86733"/>
</g>
<g filter="url(#filter1_g_245_2644)">
<path d="M63.0732 51.1318C64.351 54.2852 63.5859 57.5721 61.3642 58.4727C60.979 58.6288 60.5749 58.7007 60.164 58.7002C59.8355 61.0597 58.4864 62.8773 56.6601 63.1152C55.4904 63.2676 54.3445 62.743 53.4286 61.7695C52.2061 62.8821 50.7303 63.3616 49.412 62.9082C47.9019 62.3886 46.9819 60.7769 46.8622 58.8076C46.4247 58.8422 45.99 58.7925 45.5712 58.6484C43.3043 57.8687 42.3632 54.6286 43.4696 51.4111C44.2809 49.0526 45.9676 47.3616 47.703 46.9336C47.813 43.638 50.5165 41.0001 53.8388 41C57.231 41 59.9814 43.7504 59.9814 47.1426C59.9814 47.2293 59.9781 47.3155 59.9745 47.4014C61.234 48.109 62.3819 49.4261 63.0732 51.1318Z" fill="#F86733"/>
</g>
<g filter="url(#filter2_g_245_2644)">
<path d="M41.8494 43.1359L42.1214 47.7847" stroke="white" stroke-width="4" stroke-linecap="round" stroke-linejoin="round"/>
<path d="M22.865 41.8172L23.137 46.466" stroke="white" stroke-width="4" stroke-linecap="round" stroke-linejoin="round"/>
<path d="M23.1525 33.8195C26.967 33.1927 30.8672 33.0774 34.7129 33.4964C36.6581 33.7072 38.5172 34.3071 40.4411 34.5749C41.4761 34.7222 42.0783 34.0191 42.8154 33.3824C43.6895 32.6284 44.5723 31.8794 45.4464 31.1254C47.0763 29.7224 48.7011 28.328 50.3397 26.93C51.4877 25.9416 53.2184 23.904 54.9144 24.0864C56.6104 24.2688 57.2777 26.213 57.3782 27.5989C57.4996 29.3087 57.0876 31.0223 56.6437 32.6712C55.7481 36.0224 54.3595 39.2275 53.7018 42.6467C53.3424 44.5292 56.2438 45.3037 56.6046 43.3989C57.2229 40.1879 58.4582 37.1483 59.3764 34.018C60.2945 30.8877 61.2051 26.6906 59.1768 23.6836C58.2218 22.2778 56.7926 21.2332 55.0716 21.0941C53.239 20.9483 51.6842 21.9212 50.3099 23.0215C46.705 25.9054 43.2826 29.0332 39.7776 32.0441L41.2119 31.6598C35.0445 30.062 28.6711 29.8811 22.3953 30.9112C20.4949 31.2227 21.2795 34.1237 23.1712 33.8072L23.1525 33.8195Z" fill="white"/>
<path d="M23.5143 31.0723C21.0229 29.5877 18.5314 28.103 16.0449 26.6097L12.3077 24.3828C11.2872 23.7705 10.219 22.9805 9.03309 22.7346C6.16688 22.119 4.92471 24.7505 4.32531 27.0487C3.67153 29.5811 3.3572 32.2055 3.34804 34.8214C3.34442 36.7477 6.33743 36.7436 6.34604 34.8087C6.3544 32.6542 6.58594 30.5132 7.08401 28.4105C7.25848 27.6683 7.38815 26.4037 7.95135 25.8282C8.38125 25.3836 9.0214 25.9149 9.45807 26.1785C13.6606 28.6395 17.8318 31.1748 22.0143 33.6704C23.6708 34.6614 25.1708 32.0633 23.5143 31.0723Z" fill="white"/>
</g>
<g filter="url(#filter3_g_245_2644)">
<path d="M5.00586 35.5C5.17253 37.3333 7.00586 42 7.00586 42C6.33919 42.6667 5.00586 44.7 5.00586 47.5" stroke="white" stroke-width="3"/>
</g>
</g>
<defs>
<filter id="filter0_g_245_2644" x="0.00561523" y="38" width="22.686" height="24.1413" filterUnits="userSpaceOnUse" color-interpolation-filters="sRGB">
<feFlood flood-opacity="0" result="BackgroundImageFix"/>
<feBlend mode="normal" in="SourceGraphic" in2="BackgroundImageFix" result="shape"/>
<feTurbulence type="fractalNoise" baseFrequency="0.99900001287460327 0.99900001287460327" numOctaves="3" seed="7764" />
<feDisplacementMap in="shape" scale="2" xChannelSelector="R" yChannelSelector="G" result="displacedImage" width="100%" height="100%" />
<feMerge result="effect1_texture_245_2644">
<feMergeNode in="displacedImage"/>
</feMerge>
</filter>
<filter id="filter1_g_245_2644" x="42.0059" y="40" width="22.686" height="24.1413" filterUnits="userSpaceOnUse" color-interpolation-filters="sRGB">
<feFlood flood-opacity="0" result="BackgroundImageFix"/>
<feBlend mode="normal" in="SourceGraphic" in2="BackgroundImageFix" result="shape"/>
<feTurbulence type="fractalNoise" baseFrequency="0.99900001287460327 0.99900001287460327" numOctaves="3" seed="7764" />
<feDisplacementMap in="shape" scale="2" xChannelSelector="R" yChannelSelector="G" result="displacedImage" width="100%" height="100%" />
<feMerge result="effect1_texture_245_2644">
<feMergeNode in="displacedImage"/>
</feMerge>
</filter>
<filter id="filter2_g_245_2644" x="2.34814" y="20.0795" width="59.0488" height="30.7053" filterUnits="userSpaceOnUse" color-interpolation-filters="sRGB">
<feFlood flood-opacity="0" result="BackgroundImageFix"/>
<feBlend mode="normal" in="SourceGraphic" in2="BackgroundImageFix" result="shape"/>
<feTurbulence type="fractalNoise" baseFrequency="0.99900001287460327 0.99900001287460327" numOctaves="3" seed="7764" />
<feDisplacementMap in="shape" scale="2" xChannelSelector="R" yChannelSelector="G" result="displacedImage" width="100%" height="100%" />
<feMerge result="effect1_texture_245_2644">
<feMergeNode in="displacedImage"/>
</feMerge>
</filter>
<filter id="filter3_g_245_2644" x="2.50586" y="34.3642" width="7.25537" height="14.1358" filterUnits="userSpaceOnUse" color-interpolation-filters="sRGB">
<feFlood flood-opacity="0" result="BackgroundImageFix"/>
<feBlend mode="normal" in="SourceGraphic" in2="BackgroundImageFix" result="shape"/>
<feTurbulence type="fractalNoise" baseFrequency="0.99900001287460327 0.99900001287460327" numOctaves="3" seed="7764" />
<feDisplacementMap in="shape" scale="2" xChannelSelector="R" yChannelSelector="G" result="displacedImage" width="100%" height="100%" />
<feMerge result="effect1_texture_245_2644">
<feMergeNode in="displacedImage"/>
</feMerge>
</filter>
<clipPath id="clip0_245_2644">
<rect width="66.1935" height="63.1413" fill="white"/>
</clipPath>
</defs>
</svg>
