<svg width="69" height="66" viewBox="0 0 69 66" fill="none" xmlns="http://www.w3.org/2000/svg">
<g clip-path="url(#clip0_245_2596)">
<path d="M36.7419 7.00095C33.2492 6.22244 30.3234 5.39552 27.1547 5.79848C24.553 6.12935 21.7247 6.94197 19.7663 8.33683C17.7414 9.77916 15.6305 11.3071 13.8332 13.0586C12.0391 14.8071 10.6357 16.7056 9.95623 18.8489C9.44937 20.4478 8.83423 22.0468 8.31841 23.5215C7.78947 25.0336 7.33052 26.5061 7.05152 28.0426C6.57142 30.6868 6.11074 33.3106 6.28309 35.7005L6.6541 39.8803C7.17618 41.8633 7.3073 42.3411 7.74655 43.3956C8.1417 44.3442 8.7775 45.1785 9.60316 46.0456C11.2792 47.8056 13.1829 49.5125 15.1636 50.7878C18.9987 53.2572 22.9564 55.4786 27.168 57.0675C33.4997 59.4562 39.9289 61.264 46.1165 59.4441C50.5248 58.1474 54.0023 55.6989 56.5121 52.0551C59.2727 48.0472 60.3099 43.2398 61.1016 38.2073C61.7763 33.918 61.6393 28.9859 60.4614 24.8436C59.0266 19.798 54.6638 15.288 49.8718 12.4589C45.7058 9.99948 41.3861 8.03615 36.7419 7.00095Z" stroke="white" stroke-width="2.81033" stroke-linecap="round"/>
<path d="M42.2339 33.0988C42.0705 33.0832 42.0023 33.6546 41.8683 33.7852C41.5632 34.0824 41.117 34.0953 40.7198 34.1672C39.8051 34.3329 39.2491 33.6099 39.4299 32.7987C39.5839 32.1079 40.4263 31.4199 41.1317 31.5771C41.7616 31.7175 42.4772 32.0072 42.3017 32.7949" stroke="white" stroke-width="3.51291" stroke-linecap="round"/>
<path d="M28.4402 24.0501C28.2768 24.0346 28.2086 24.606 28.0746 24.7366C27.7695 25.0338 27.3233 25.0466 26.9261 25.1186C26.0114 25.2843 25.4554 24.5613 25.6362 23.75C25.7902 23.0592 26.6326 22.3712 27.338 22.5285C27.9679 22.6689 28.6835 22.9586 28.508 23.7462" stroke="white" stroke-width="3.51291" stroke-linecap="round"/>
<path d="M29.7297 40.8706C28.5188 41.3071 26.2978 42.0802 25.159 41.077C24.5107 40.5059 24.167 40.0772 24.1111 39.2205C24.0468 38.2347 24.133 37.3383 24.3462 36.3819C24.3832 36.2157 24.3721 35.9838 24.5411 35.9417" stroke="white" stroke-width="3.51291" stroke-linecap="round"/>
</g>
<defs>
<clipPath id="clip0_245_2596">
<rect width="57.9631" height="54.4501" fill="white" transform="matrix(-0.976047 -0.217559 -0.217559 0.976047 68.4209 12.6104)"/>
</clipPath>
</defs>
</svg>
