<svg width="213" height="48" viewBox="0 0 213 48" fill="none" xmlns="http://www.w3.org/2000/svg">
<path d="M50.0155 33.889C50.0155 35.2688 48.1555 36.9936 45.8453 37.0083C43.535 37.0229 41.6455 35.3128 41.6455 33.933C41.6455 32.5532 43.5129 32.1642 45.8231 32.1569C48.1334 32.1422 50.0081 32.5092 50.0229 33.889H50.0155Z" fill="#040000"/>
<path d="M54.7617 27.5183L55.1972 32.0027" stroke="#040000" stroke-width="4" stroke-linecap="round" stroke-linejoin="round"/>
<path d="M36.25 27.5183L36.6855 32.0027" stroke="#040000" stroke-width="4" stroke-linecap="round" stroke-linejoin="round"/>
<path d="M18.4696 21.3312C18.3662 18.6303 18.6467 15.9 19.3184 13.2725C19.5546 12.333 19.9679 11.2835 20.8831 10.9679C21.7024 10.6963 22.566 11.122 23.3189 11.5257C27.4743 13.7862 31.6446 16.0541 35.8074 18.322C41.6974 17.1037 47.7129 17.133 53.3889 18.4027C56.452 15.5771 59.5298 12.7587 62.5929 9.94036C63.6189 9.00091 64.7186 8.01742 66.0177 7.76788C68.0843 7.37889 69.9296 9.08164 70.4979 11.122C71.0662 13.1624 70.675 15.4449 70.1953 17.6101C69.7155 19.7752 68.1139 24.355 67.671 27.4743C67.671 27.4743 70.6308 30.3367 69.782 34.0578" stroke="#040000" stroke-width="5" stroke-linecap="round" stroke-linejoin="round"/>
<path d="M15.3108 38.8945C14.9418 37.9551 14.6022 36.9936 14.307 36.0174C13.1482 32.1129 12.7496 27.8633 13.901 23.922C14.1741 22.9899 14.5801 22.0211 15.3772 21.478C16.5803 20.6633 18.1599 21.1771 19.422 21.845C22.2268 23.3202 27.5853 30.8651 29.4527 37.8817" stroke="#040000" stroke-width="5" stroke-linecap="round" stroke-linejoin="round"/>
<path d="M37.2764 38.5055C37.2764 38.5055 43.2992 40.0835 45.6907 35.5624" stroke="#040000" stroke-width="4" stroke-linecap="round" stroke-linejoin="round"/>
<path d="M54.5699 39.2174C54.5699 39.2174 48.4142 40.1862 46.4951 35.4449" stroke="#040000" stroke-width="4" stroke-linecap="round" stroke-linejoin="round"/>
<path d="M103.018 20.2251V24.7431H90.901C88.0639 24.7431 87 24.0297 87 21.2951V14.3397C87 11.6348 88.0639 10.862 90.901 10.862H99.2645C101.924 10.862 103.018 11.6348 103.018 14.518V15.5881H107.066V12.9427C107.066 11.0106 108.455 10 110.022 10C111.588 10 112.977 11.0106 112.977 12.9427V25.4268H107.066V20.2251H103.018ZM92.4968 15.707V19.8684C92.4968 20.2548 92.6742 20.4628 93.1175 20.4628H97.6095V15.6773C97.6095 15.3206 97.4617 15.1125 97.0184 15.1125H93.0583C92.6446 15.1125 92.4968 15.3503 92.4968 15.707ZM94.4473 26.3482H106.8C111.086 26.3482 113.302 28.7558 113.302 32.1741C113.302 35.5924 111.086 38 106.8 38H94.4473C90.1031 38 87.9457 35.5329 87.9457 32.1741C87.9457 28.8153 90.1031 26.3482 94.4473 26.3482ZM95.9545 33.8981H105.293C106.682 33.8981 107.303 33.1253 107.303 32.1741C107.303 31.2229 106.682 30.4204 105.293 30.4204H95.9545C94.5655 30.4204 93.9449 31.2229 93.9449 32.1741C93.9449 33.1253 94.5655 33.8981 95.9545 33.8981Z" fill="black"/>
<path d="M141.791 18.828H142.559C144.362 18.828 144.894 20.017 144.894 21.2059C144.894 22.4246 144.333 23.5541 142.559 23.5541H141.791V25.2781H135.881V12.9427C135.881 11.0106 137.27 10 138.836 10C140.313 10 141.614 10.8917 141.762 12.586H142.559C144.362 12.586 144.894 13.7749 144.894 14.9639C144.894 16.1826 144.333 17.3121 142.559 17.3121H141.791V18.828ZM131.92 24.2378H120.158C117.646 24.2378 116.642 22.9894 116.642 20.7898V13.448C116.642 11.6348 117.971 10.7431 119.567 10.7431C121.193 10.7431 122.434 11.6645 122.434 13.3291V19.0064C122.434 19.482 122.611 19.6306 123.084 19.6306H131.92C133.635 19.6306 134.137 20.7898 134.137 21.9193C134.137 23.0786 133.605 24.2378 131.92 24.2378ZM124.118 26.051H135.644C139.988 26.051 142.264 28.518 142.264 32.0255C142.264 35.5032 139.988 38 135.644 38H124.118C119.745 38 117.499 35.4437 117.499 32.0255C117.499 28.5775 119.745 26.051 124.118 26.051ZM125.655 33.8684H134.137C135.615 33.8684 136.265 33.0064 136.265 32.0255C136.265 31.0446 135.615 30.1826 134.137 30.1826H125.655C124.148 30.1826 123.498 31.0446 123.498 32.0255C123.498 33.0064 124.148 33.8684 125.655 33.8684Z" fill="black"/>
<path d="M162.124 20.2251V24.7431H150.007C147.17 24.7431 146.106 24.0297 146.106 21.2951V14.3397C146.106 11.6348 147.17 10.862 150.007 10.862H158.37C161.03 10.862 162.124 11.6348 162.124 14.518V15.5881H166.172V12.9427C166.172 11.0106 167.561 10 169.128 10C170.694 10 172.083 11.0106 172.083 12.9427V25.4268H166.172V20.2251H162.124ZM151.603 15.707V19.8684C151.603 20.2548 151.78 20.4628 152.223 20.4628H156.715V15.6773C156.715 15.3206 156.568 15.1125 156.124 15.1125H152.164C151.75 15.1125 151.603 15.3503 151.603 15.707ZM153.553 26.3482H165.906C170.191 26.3482 172.408 28.7558 172.408 32.1741C172.408 35.5924 170.191 38 165.906 38H153.553C149.209 38 147.052 35.5329 147.052 32.1741C147.052 28.8153 149.209 26.3482 153.553 26.3482ZM155.06 33.8981H164.399C165.788 33.8981 166.409 33.1253 166.409 32.1741C166.409 31.2229 165.788 30.4204 164.399 30.4204H155.06C153.671 30.4204 153.051 31.2229 153.051 32.1741C153.051 33.1253 153.671 33.8981 155.06 33.8981Z" fill="black"/>
<path d="M200.897 18.828H201.665C203.468 18.828 204 20.017 204 21.2059C204 22.4246 203.438 23.5541 201.665 23.5541H200.897V25.2781H194.986V12.9427C194.986 11.0106 196.375 10 197.942 10C199.419 10 200.72 10.8917 200.867 12.586H201.665C203.468 12.586 204 13.7749 204 14.9639C204 16.1826 203.438 17.3121 201.665 17.3121H200.897V18.828ZM191.026 24.2378H179.264C176.752 24.2378 175.747 22.9894 175.747 20.7898V13.448C175.747 11.6348 177.077 10.7431 178.673 10.7431C180.299 10.7431 181.54 11.6645 181.54 13.3291V19.0064C181.54 19.482 181.717 19.6306 182.19 19.6306H191.026C192.74 19.6306 193.243 20.7898 193.243 21.9193C193.243 23.0786 192.711 24.2378 191.026 24.2378ZM183.224 26.051H194.75C199.094 26.051 201.37 28.518 201.37 32.0255C201.37 35.5032 199.094 38 194.75 38H183.224C178.85 38 176.604 35.4437 176.604 32.0255C176.604 28.5775 178.85 26.051 183.224 26.051ZM184.761 33.8684H193.243C194.72 33.8684 195.371 33.0064 195.371 32.0255C195.371 31.0446 194.72 30.1826 193.243 30.1826H184.761C183.254 30.1826 182.604 31.0446 182.604 32.0255C182.604 33.0064 183.254 33.8684 184.761 33.8684Z" fill="black"/>
</svg>
