<svg width="140" height="140" viewBox="0 0 140 140" fill="none" xmlns="http://www.w3.org/2000/svg">
<g filter="url(#filter0_g_245_3438)">
<path d="M26.3251 105.717V110.621H13.0975C10.0003 110.621 8.83887 109.846 8.83887 106.878V99.3289C8.83887 96.393 10.0003 95.5542 13.0975 95.5542H22.2278C25.1314 95.5542 26.3251 96.393 26.3251 99.5225V100.684H30.7451V97.8126C30.7451 95.7155 32.2614 94.6186 33.9713 94.6186C35.6812 94.6186 37.1976 95.7155 37.1976 97.8126V111.363H30.7451V105.717H26.3251ZM14.8397 100.813V105.33C14.8397 105.749 15.0333 105.975 15.5172 105.975H20.4211V100.781C20.4211 100.394 20.2598 100.168 19.7758 100.168H15.4527C15.001 100.168 14.8397 100.426 14.8397 100.813ZM16.969 112.363H30.4547C35.1328 112.363 37.5524 114.976 37.5524 118.686C37.5524 122.397 35.1328 125.01 30.4547 125.01H16.969C12.2264 125.01 9.87127 122.332 9.87127 118.686C9.87127 115.041 12.2264 112.363 16.969 112.363ZM18.6144 120.558H28.8093C30.3257 120.558 31.0032 119.719 31.0032 118.686C31.0032 117.654 30.3257 116.783 28.8093 116.783H18.6144C17.0981 116.783 16.4205 117.654 16.4205 118.686C16.4205 119.719 17.0981 120.558 18.6144 120.558Z" fill="white"/>
<path d="M68.6534 104.201H69.4922C71.4603 104.201 72.041 105.491 72.041 106.782C72.041 108.104 71.428 109.33 69.4922 109.33H68.6534V111.201H62.2009V97.8126C62.2009 95.7155 63.7173 94.6186 65.4272 94.6186C67.0403 94.6186 68.4599 95.5865 68.6212 97.4254H69.4922C71.4603 97.4254 72.041 98.7159 72.041 100.006C72.041 101.329 71.428 102.555 69.4922 102.555H68.6534V104.201ZM57.8778 110.072H45.0373C42.295 110.072 41.1981 108.717 41.1981 106.33V98.361C41.1981 96.393 42.6499 95.4252 44.3921 95.4252C46.1665 95.4252 47.5215 96.4253 47.5215 98.232V104.394C47.5215 104.91 47.7151 105.072 48.2313 105.072H57.8778C59.749 105.072 60.2975 106.33 60.2975 107.556C60.2975 108.814 59.7167 110.072 57.8778 110.072ZM49.3605 112.04H61.9428C66.6854 112.04 69.1696 114.718 69.1696 118.525C69.1696 122.3 66.6854 125.01 61.9428 125.01H49.3605C44.5856 125.01 42.1337 122.235 42.1337 118.525C42.1337 114.783 44.5856 112.04 49.3605 112.04ZM51.0381 120.525H60.2975C61.9106 120.525 62.6203 119.59 62.6203 118.525C62.6203 117.46 61.9106 116.525 60.2975 116.525H51.0381C49.3928 116.525 48.683 117.46 48.683 118.525C48.683 119.59 49.3928 120.525 51.0381 120.525Z" fill="white"/>
<path d="M90.85 105.717V110.621H77.6224C74.5252 110.621 73.3637 109.846 73.3637 106.878V99.3289C73.3637 96.393 74.5252 95.5542 77.6224 95.5542H86.7527C89.6563 95.5542 90.85 96.393 90.85 99.5225V100.684H95.2699V97.8126C95.2699 95.7155 96.7863 94.6186 98.4962 94.6186C100.206 94.6186 101.722 95.7155 101.722 97.8126V111.363H95.2699V105.717H90.85ZM79.3646 100.813V105.33C79.3646 105.749 79.5581 105.975 80.0421 105.975H84.946V100.781C84.946 100.394 84.7846 100.168 84.3007 100.168H79.9775C79.5259 100.168 79.3646 100.426 79.3646 100.813ZM81.4939 112.363H94.9796C99.6576 112.363 102.077 114.976 102.077 118.686C102.077 122.397 99.6576 125.01 94.9796 125.01H81.4939C76.7513 125.01 74.3961 122.332 74.3961 118.686C74.3961 115.041 76.7513 112.363 81.4939 112.363ZM83.1393 120.558H93.3342C94.8505 120.558 95.528 119.719 95.528 118.686C95.528 117.654 94.8505 116.783 93.3342 116.783H83.1393C81.6229 116.783 80.9454 117.654 80.9454 118.686C80.9454 119.719 81.6229 120.558 83.1393 120.558Z" fill="white"/>
<path d="M133.178 104.201H134.017C135.985 104.201 136.566 105.491 136.566 106.782C136.566 108.104 135.953 109.33 134.017 109.33H133.178V111.201H126.726V97.8126C126.726 95.7155 128.242 94.6186 129.952 94.6186C131.565 94.6186 132.985 95.5865 133.146 97.4254H134.017C135.985 97.4254 136.566 98.7159 136.566 100.006C136.566 101.329 135.953 102.555 134.017 102.555H133.178V104.201ZM122.403 110.072H109.562C106.82 110.072 105.723 108.717 105.723 106.33V98.361C105.723 96.393 107.175 95.4252 108.917 95.4252C110.691 95.4252 112.046 96.4253 112.046 98.232V104.394C112.046 104.91 112.24 105.072 112.756 105.072H122.403C124.274 105.072 124.822 106.33 124.822 107.556C124.822 108.814 124.242 110.072 122.403 110.072ZM113.885 112.04H126.468C131.21 112.04 133.694 114.718 133.694 118.525C133.694 122.3 131.21 125.01 126.468 125.01H113.885C109.111 125.01 106.659 122.235 106.659 118.525C106.659 114.783 109.111 112.04 113.885 112.04ZM115.563 120.525H124.822C126.435 120.525 127.145 119.59 127.145 118.525C127.145 117.46 126.435 116.525 124.822 116.525H115.563C113.918 116.525 113.208 117.46 113.208 118.525C113.208 119.59 113.918 120.525 115.563 120.525Z" fill="white"/>
<g clip-path="url(#clip0_245_3438)">
<path d="M82.1584 68.4201C82.1584 70.7303 79.0618 73.618 75.2156 73.6426C71.3694 73.6671 68.2236 70.804 68.2236 68.4938C68.2236 66.1837 71.3325 65.5324 75.1787 65.5201C79.0249 65.4955 82.1461 66.1099 82.1707 68.4201H82.1584Z" fill="white"/>
<path d="M90.0598 57.7541L90.7848 65.2622" stroke="white" stroke-width="5.52966" stroke-linecap="round" stroke-linejoin="round"/>
<path d="M59.241 57.7541L59.966 65.2622" stroke="white" stroke-width="5.52966" stroke-linecap="round" stroke-linejoin="round"/>
<path d="M29.639 47.3951C29.4669 42.8731 29.9339 38.3019 31.0521 33.9027C31.4453 32.3298 32.1334 30.5726 33.6572 30.0442C35.0212 29.5896 36.4589 30.3023 37.7123 30.9781C44.6305 34.7629 51.5733 38.5599 58.5038 42.357C68.3097 40.3171 78.3245 40.3663 87.7741 42.4921C92.8737 37.7612 97.9978 33.0426 103.097 28.3239C104.805 26.751 106.636 25.1044 108.799 24.6866C112.24 24.0354 115.312 26.8862 116.258 30.3023C117.204 33.7184 116.553 37.54 115.754 41.165C114.955 44.79 112.289 52.4578 111.552 57.6802C111.552 57.6802 116.479 62.4726 115.066 68.7027" stroke="white" stroke-width="6.14406" stroke-linecap="round" stroke-linejoin="round"/>
<path d="M24.3796 76.8008C23.7652 75.2279 23.1999 73.6181 22.7084 71.9838C20.7792 65.4465 20.1156 58.3317 22.0325 51.733C22.4872 50.1724 23.1631 48.5504 24.4902 47.641C26.4931 46.2771 29.1228 47.1372 31.2241 48.2554C35.8936 50.7254 44.8147 63.3576 47.9236 75.105" stroke="white" stroke-width="6.14406" stroke-linecap="round" stroke-linejoin="round"/>
<path d="M60.9492 76.1494C60.9492 76.1494 70.9763 78.7913 74.9577 71.2219" stroke="white" stroke-width="5.52966" stroke-linecap="round" stroke-linejoin="round"/>
<path d="M89.7401 77.3415C89.7401 77.3415 79.4918 78.9635 76.2969 71.0254" stroke="white" stroke-width="5.52966" stroke-linecap="round" stroke-linejoin="round"/>
</g>
</g>
<defs>
<filter id="filter0_g_245_3438" x="-1" y="-1" width="141.63" height="141.63" filterUnits="userSpaceOnUse" color-interpolation-filters="sRGB">
<feFlood flood-opacity="0" result="BackgroundImageFix"/>
<feBlend mode="normal" in="SourceGraphic" in2="BackgroundImageFix" result="shape"/>
<feTurbulence type="fractalNoise" baseFrequency="0.99900001287460327 0.99900001287460327" numOctaves="3" seed="7764" />
<feDisplacementMap in="shape" scale="2" xChannelSelector="R" yChannelSelector="G" result="displacedImage" width="100%" height="100%" />
<feMerge result="effect1_texture_245_3438">
<feMergeNode in="displacedImage"/>
</feMerge>
</filter>
<clipPath id="clip0_245_3438">
<rect width="103.22" height="60.2733" fill="white" transform="translate(17.2034 20.8898)"/>
</clipPath>
</defs>
</svg>
